<?xml version="1.0" encoding="UTF-8"?>
<svg version="1.1" xmlns="http://www.w3.org/2000/svg" width="1691" height="763">
<path d="M0 0 C0 1.32 0 2.64 0 4 C-0.59167969 4.15855469 -1.18335938 4.31710938 -1.79296875 4.48046875 C-8.51567102 6.46547546 -12.05531294 9.08296941 -16 15 C-16.39387788 17.32387947 -16.73486085 19.65793749 -17 22 C-15.74445313 21.79503906 -14.48890625 21.59007813 -13.1953125 21.37890625 C-11.50523332 21.10661572 -9.81512772 20.83448912 -8.125 20.5625 C-7.30257812 20.42779297 -6.48015625 20.29308594 -5.6328125 20.15429688 C-4.8078125 20.02216797 -3.9828125 19.89003906 -3.1328125 19.75390625 C-2.38918457 19.63345947 -1.64555664 19.5130127 -0.87939453 19.38891602 C6.60140159 18.37849477 13.96006235 17.85373762 21.5078125 17.90234375 C22.35930878 17.9037587 23.21080505 17.90517365 24.08810425 17.90663147 C26.76710759 17.91216081 29.44602257 17.92469926 32.125 17.9375 C33.95833211 17.94252416 35.79166556 17.94708545 37.625 17.95117188 C42.08336659 17.96210694 46.54166839 17.97932128 51 18 C49.63846084 21.50234687 48.13093737 24.56960189 46.125 27.75 C39.45652351 38.67391015 36.70797282 48.14306285 38 61 C40.69966303 69.89240151 45.77608844 75.46096578 53 81 C54.10282792 81.87079562 55.20430741 82.74330074 56.3046875 83.6171875 C58.68632125 85.50222248 61.07604443 87.37623773 63.47265625 89.2421875 C66.77717645 91.81951402 70.0541204 94.4269836 73.3125 97.0625 C74.19550781 97.77535156 75.07851562 98.48820312 75.98828125 99.22265625 C78 101 78 101 79 103 C70.27954416 103.19536663 61.6871604 102.51791814 53.00241089 101.83169556 C31.35376605 100.12862022 9.69207881 98.97636266 -12 98 C-12 101.96 -12 105.92 -12 110 C-11.03400879 109.91435791 -10.06801758 109.82871582 -9.07275391 109.74047852 C-5.39380964 109.4151095 -1.71453199 109.09364306 1.96484375 108.77319336 C3.53947744 108.63554052 5.11402613 108.49691104 6.68847656 108.35717773 C8.98739766 108.15333614 11.28663027 107.9533402 13.5859375 107.75390625 C14.25861664 107.6934462 14.93129578 107.63298615 15.62435913 107.57069397 C30.54490608 106.29091518 45.41461762 105.84706134 60.3828125 105.8671875 C62.21182264 105.8665097 64.04083269 105.86553579 65.86984253 105.86428833 C69.69025537 105.86282546 73.51064463 105.86491448 77.33105469 105.86962891 C82.09453899 105.87523689 86.85796632 105.87199627 91.62144852 105.86619186 C111.27098548 105.8458825 130.91023687 105.97729468 150.5546875 106.4453125 C151.4186124 106.46472775 152.28253731 106.48414299 153.17264175 106.50414658 C155.59427144 106.5600641 158.01561986 106.62265266 160.43701172 106.68798828 C161.14872402 106.70430927 161.86043633 106.72063026 162.59371567 106.73744583 C165.85519165 106.83437749 168.87568001 107.01707558 172 108 C172 109.32 172 110.64 172 112 C171.13248108 112.33373375 171.13248108 112.33373375 170.24743652 112.67420959 C164.14454771 115.02281715 158.04366617 117.3765844 151.94384766 119.7331543 C149.67709024 120.60813616 147.40984978 121.48186781 145.14208984 122.35424805 C114.13182872 132.18793645 114.13182872 132.18793645 92.83984375 154.640625 C89.46673397 164.11671015 90.82998396 172.07172114 95 181 C101.14465819 192.12360953 113.79264094 198.27059944 124.3125 204.625 C126.59717038 206.01821997 128.8811665 207.41247522 131.1640625 208.80859375 C131.73483017 209.15720963 132.30559784 209.5058255 132.8936615 209.86500549 C138.69556173 213.41398137 144.44872989 217.03756177 150.1875 220.6875 C151.52131714 221.53272217 151.52131714 221.53272217 152.88208008 222.39501953 C157.69500456 225.46339211 162.38831441 228.63640252 167 232 C166.67 232.99 166.34 233.98 166 235 C157.67622072 234.45289004 149.54538652 233.1436865 141.34998322 231.63901711 C138.29076992 231.07773238 135.22950189 230.52803576 132.16837502 229.97729969 C130.54814 229.68564756 128.92800229 229.39345438 127.3079586 229.10074139 C81.5603651 220.83516333 36.38898427 215.32677411 -10 212 C-10 222.23 -10 232.46 -10 243 C-7.53273438 242.73445312 -5.06546875 242.46890625 -2.5234375 242.1953125 C13.2589883 240.51394106 29.03592138 238.8604703 44.875 237.8125 C45.94314941 237.74111816 47.01129883 237.66973633 48.11181641 237.59619141 C51.74009376 237.37143086 55.36920648 237.17819908 59 237 C60.26241013 236.93694672 60.26241013 236.93694672 61.55032349 236.87261963 C79.42659126 236.00424285 97.29273546 235.76023783 115.1875 235.75 C115.90090797 235.74911629 116.61431595 235.74823257 117.34934235 235.74732208 C148.19636672 235.71369403 178.88115487 237.02382602 209.67578125 238.80999756 C214.8142914 239.10369949 219.95391909 239.37509332 225.09375 239.64453125 C233.39671868 240.0812318 241.69872847 240.53209793 250 241 C250.66 242.32 251.32 243.64 252 245 C244.08785864 248.72649351 236.06252905 251.97650935 227.87890625 255.0546875 C226.01224962 255.76493344 224.14559793 256.47519264 222.27922726 257.18618965 C217.74048668 258.91443723 213.19930721 260.63612371 208.65405273 262.34716797 C206.08618665 263.31421491 203.52063698 264.28701508 200.95726013 265.26589966 C198.56409337 266.17951207 196.1678393 267.08509608 193.76795959 267.98092651 C172.91926844 275.97846319 156.54670559 288.57461679 147 309 C140.31167627 326.62411741 140.60502097 343.21934704 147.4375 360.671875 C153.10262412 372.92815314 161.38478673 382.38760569 171.984375 390.625 C175.59542353 393.46893459 179.04319449 396.47209363 182.5 399.5 C187.64832446 403.99084468 192.86232021 408.37567775 198.171875 412.67578125 C202.18517721 415.97400613 206.12067126 419.36036539 210.05493164 422.75219727 C211.16702394 423.7107418 212.2848796 424.66264469 213.40869141 425.60742188 C214.9407132 426.94811723 216.37043859 428.40302245 217.79296875 429.859375 C225.72707267 435.15522025 237.84299311 431.25421158 246.875 430 C248.97758246 429.71245086 251.08039486 429.42682176 253.18362427 429.14404297 C255.07590777 428.88898814 256.96742299 428.62825217 258.85888672 428.3671875 C262 428 262 428 266 428 C265.92998779 427.34217529 265.85997559 426.68435059 265.7878418 426.0065918 C264.70779239 414.29220979 264.8011677 402.56682125 264.8125 390.8125 C264.81310425 389.65373352 264.8137085 388.49496704 264.81433105 387.30108643 C264.93017057 304.53375608 272.12912788 221.11041748 289 140 C290.32 140 291.64 140 293 140 C292.40440682 149.60560501 291.47746693 159.13239911 290.38641357 168.69116211 C284.6439435 219.40938714 282.64284246 270.10235311 282.8626709 321.1282959 C282.88370774 326.56142505 282.89238372 331.99457563 282.90234375 337.42773438 C282.92333632 347.95187516 282.95712892 358.47592705 283 369 C286.13525383 367.15486595 288.85051965 365.36792014 291.5 362.875 C328.42931144 330.07956671 377.22965322 320.41669745 425 319 C424.49210937 318.11441406 423.98421875 317.22882813 423.4609375 316.31640625 C406.58632419 286.22519749 402.40902515 251.91412683 411.625 218.625 C416.61297959 201.59441454 424.43353983 186.8772524 434 172 C433.67 171.67 433.34 171.34 433 171 C431.15860329 171.29121151 431.15860329 171.29121151 428.96875 171.890625 C388.22500665 182.02119211 336.10201728 185.40094931 297 167 C297.33 165.35 297.66 163.7 298 162 C303.84006218 162.95450479 309.67271369 163.93679626 315.49609375 164.98828125 C316.482146 165.16456055 317.46819824 165.34083984 318.48413086 165.52246094 C320.44798812 165.87412064 322.41109157 166.23002504 324.37329102 166.59082031 C372.67773593 175.19485529 421.78874071 163.79589269 465.265625 142.60961914 C465.87910797 142.31201187 466.49259094 142.0144046 467.12466431 141.70777893 C468.78871369 140.89719795 470.44800365 140.07686686 472.10693359 139.25585938 C474.77702084 138.09679366 477.13313639 137.43607513 480 137 C480.65625 138.80175781 480.65625 138.80175781 481 141 C480.03125 142.61230469 480.03125 142.61230469 478.5 144.171875 C477.94610596 144.74945557 477.39221191 145.32703613 476.8215332 145.92211914 C475.91987427 146.82692017 475.91987427 146.82692017 475 147.75 C473.78454867 149.01373883 472.56969919 150.27805681 471.35546875 151.54296875 C470.76942871 152.14544434 470.18338867 152.74791992 469.57958984 153.36865234 C444.07835336 179.70547803 426.5654808 213.55438166 425.625 250.625 C426.30652209 279.34186271 438.57350941 303.60092249 459.0078125 323.23828125 C462.52172697 326.52989605 466.21855031 329.56872827 469.98828125 332.5625 C474.41455187 336.14485132 478.6831745 339.90375558 482.9621582 343.65991211 C483.572771 344.19366455 484.18338379 344.72741699 484.8125 345.27734375 C485.62654297 345.99265259 485.62654297 345.99265259 486.45703125 346.72241211 C488.18505399 348.19804601 488.18505399 348.19804601 491 350 C490.67 351.32 490.34 352.64 490 354 C483.87933835 353.39481013 477.94955249 352.48686113 471.93359375 351.22265625 C470.21291094 350.87034346 468.49220713 350.51813325 466.77148438 350.16601562 C464.11471286 349.61740608 461.45836634 349.06684417 458.80249023 348.51391602 C440.99245007 344.81699099 423.83159817 342.58006152 405.625 342.625 C404.75148895 342.62587616 403.87797791 342.62675232 402.97799683 342.62765503 C364.00073159 342.75595296 321.17021108 352.87516738 288.5625 375.29296875 C286 377 286 377 284 377 C284.13631836 378.64814697 284.13631836 378.64814697 284.27539062 380.32958984 C284.61493985 384.44807603 284.94910669 388.56698498 285.28173828 392.68603516 C285.42580242 394.46089251 285.57128111 396.23563569 285.71826172 398.01025391 C287.21963851 416.15955016 287.21963851 416.15955016 287 425 C288.3137561 424.74476563 288.3137561 424.74476563 289.65405273 424.484375 C297.82704873 422.92217306 306.01220467 421.47680503 314.22265625 420.125 C365.58445881 411.6524335 416.40849108 401.26335979 467 389 C467.97565918 388.76365845 468.95131836 388.52731689 469.95654297 388.28381348 C504.87274139 379.80120287 539.50352135 370.07779408 573.79296875 359.33984375 C574.70851532 359.05387833 575.62406189 358.7679129 576.56735229 358.47328186 C580.83066035 357.13925383 585.08857072 355.79118767 589.33886719 354.41625977 C590.82869911 353.94393046 592.31860343 353.4718294 593.80859375 353 C594.47062302 352.78000839 595.13265228 352.56001678 595.81474304 352.33335876 C599.57743997 351.15499047 602.20573053 350.84351353 606 352 C605 355 605 355 603.22189331 355.91194153 C602.05220505 356.29161324 602.05220505 356.29161324 600.85888672 356.67895508 C599.96769135 356.97444244 599.07649597 357.26992981 598.15829468 357.57437134 C597.17535431 357.88627411 596.19241394 358.19817688 595.1796875 358.51953125 C594.15541656 358.85447601 593.13114563 359.18942078 592.07583618 359.53451538 C588.67965984 360.64032481 585.2777852 361.72721131 581.875 362.8125 C579.49665737 363.5789117 577.11840317 364.34559789 574.74023438 365.11254883 C470.10471784 398.72462717 363.00595211 424.09103084 65 459 C63.95797424 459.05113953 62.91594849 459.10227905 61.84234619 459.15496826 C29.87134605 460.71670546 -2.05957693 461.18311964 -34.0625 461.1875 C-35.36886728 461.18828363 -35.36886728 461.18828363 -36.70162582 461.1890831 C-41.74017008 461.19185086 -46.77863127 461.18804082 -51.81715775 461.1739502 C-53.35935797 461.17001311 -54.9015626 461.16750308 -56.44376755 461.16653442 C-70.91641761 461.1519655 -70.91641761 461.1519655 -78 460 C-78 455.05 -78 450.1 -78 445 C-64.8 445 -51.6 445 -38 445 C-33.6338709 426.38650226 -29.90269488 408.31554936 -29.9765625 389.09765625 C-29.98163818 387.37494507 -29.98163818 387.37494507 -29.98681641 385.61743164 C-29.99116699 384.7536792 -29.99551758 383.88992676 -30 383 C-36.43302461 382.92243222 -42.86592426 382.87078275 -49.29931641 382.83520508 C-51.47709659 382.82033696 -53.65484807 382.80003647 -55.83251953 382.77368164 C-82.96005541 382.45416563 -113.2431827 383.85670575 -135.52734375 401.1328125 C-137.93306206 402.94945287 -140.38980568 404.49645336 -143 406 C-162.73817382 391.64496449 -175.63341657 365.04393759 -179.375 341.4375 C-181.472151 322.24050241 -177.15927936 303.28983337 -165.25 287.875 C-154.81182645 275.4809163 -146.20408565 267.96305815 -130.375 264.25 C-128.98239458 263.91311735 -127.58981731 263.57611835 -126.19726562 263.23901367 C-53.99863097 246 -53.99863097 246 -32 246 C-32 234.78 -32 223.56 -32 212 C-70.87754997 214.74712622 -70.87754997 214.74712622 -106.44140625 229.546875 C-110.59039496 231.90324722 -110.59039496 231.90324722 -113 232 C-121.37270122 228.01786162 -129.04588902 222.06686234 -136 216 C-137.02867187 215.11441406 -137.02867187 215.11441406 -138.078125 214.2109375 C-148.48295744 204.58441929 -156.00096796 191.62923623 -157.3359375 177.42578125 C-157.76291951 162.23507513 -152.47020983 151.40745691 -142.37890625 140.359375 C-137.29856907 135.3207483 -133.85294232 132.51949417 -126.8046875 130.7890625 C-126.11205307 130.6152858 -125.41941864 130.44150909 -124.70579529 130.26246643 C-122.43284508 129.69861419 -120.15472523 129.16074804 -117.875 128.625 C-116.26968829 128.23644367 -114.66446511 127.84752139 -113.05932617 127.45825195 C-91.45261505 122.27975084 -69.60991515 118.15577344 -47.6875 114.5625 C-46.69210205 114.39838623 -45.6967041 114.23427246 -44.67114258 114.06518555 C-43.75228271 113.92121338 -42.83342285 113.77724121 -41.88671875 113.62890625 C-41.10514404 113.50588135 -40.32356934 113.38285645 -39.51831055 113.25610352 C-36.36067852 112.93498321 -33.17391845 113 -30 113 C-30.33 108.38 -30.66 103.76 -31 99 C-45.03563993 98.51038465 -58.80897058 99.72658263 -71.51953125 106.109375 C-74.5484956 107.19694015 -75.98073997 107.06820347 -79 106 C-89.62730835 98.01909981 -99.05850288 83.14244204 -101 70 C-101.85778004 61.63312916 -100.26774341 54.72375061 -95.45703125 47.76953125 C-87.14118943 37.62686835 -76.68329494 35.25282174 -64.5 32.3125 C-62.91764762 31.91991186 -61.33561292 31.52604099 -59.75390625 31.13085938 C-56.17339447 30.2389365 -52.59029985 29.35875097 -49.00317383 28.49380493 C-47.61709798 28.15212161 -46.23424292 27.79720158 -44.85424805 27.43173218 C-41.41531233 26.52726905 -38.58397757 26 -35 26 C-34.9175 24.845 -34.835 23.69 -34.75 22.5 C-33.79495173 15.18226532 -30.41687895 9.54319383 -25.0390625 4.54296875 C-18.50124172 -0.4042328 -7.81655521 -3.90827761 0 0 Z M-87.52734375 46.41796875 C-88.01332031 46.94003906 -88.49929688 47.46210937 -89 48 C-89.49628906 48.51175781 -89.99257813 49.02351563 -90.50390625 49.55078125 C-94.51427133 54.33808315 -95.93619124 59.8185259 -96 66 C-94.52464752 75.01483757 -90.70128133 81.99457942 -85 89 C-84.32195312 89.87527344 -83.64390625 90.75054687 -82.9453125 91.65234375 C-80.21974298 95.08006188 -80.21974298 95.08006188 -77 98 C-74.60191231 97.98154469 -74.60191231 97.98154469 -72 97 C-70.86949219 96.64164062 -69.73898437 96.28328125 -68.57421875 95.9140625 C-67.64089722 95.60335815 -67.64089722 95.60335815 -66.6887207 95.28637695 C-32.59077356 84.01745676 4.61562007 86.45152155 40 88 C39.3970813 87.30729004 39.3970813 87.30729004 38.78198242 86.60058594 C29.6945694 76.09322168 25.3397905 66.4782454 25.7109375 52.2734375 C26.46510412 43.73301005 28.9725526 36.49938482 33 29 C33 28.34 33 27.68 33 27 C-30.42912343 24.94054757 -30.42912343 24.94054757 -87.52734375 46.41796875 Z M-104.62213135 133.66149902 C-106.83144366 133.9760052 -109.04135544 134.28588172 -111.25146484 134.59472656 C-114.69225096 135.08303903 -118.12789516 135.5951795 -121.5625 136.125 C-122.4891748 136.2590625 -123.41584961 136.393125 -124.37060547 136.53125 C-131.00275163 137.62606408 -134.23991225 139.65224175 -138.3515625 145.13671875 C-139.12199492 146.3121369 -139.87948711 147.49612076 -140.625 148.6875 C-141.01743896 149.31325928 -141.40987793 149.93901855 -141.81420898 150.58374023 C-147.75069826 160.28355085 -149.8663677 169.57912669 -147.34375 180.9609375 C-145.15496494 187.69711222 -141.57885187 192.67808883 -137 198 C-136.39671875 198.80566406 -135.7934375 199.61132812 -135.171875 200.44140625 C-130.88833019 205.48766857 -125.3248981 209.13027357 -120 213 C-118.94232422 213.89912109 -118.94232422 213.89912109 -117.86328125 214.81640625 C-115.73093433 216.36594251 -114.65024808 216.9571003 -112 217 C-109.19199953 215.71491782 -106.62987437 214.2066628 -104.02514648 212.55224609 C-88.86911746 203.07262509 -70.46044769 200.1582858 -53 198 C-52.05302246 197.88285645 -51.10604492 197.76571289 -50.13037109 197.64501953 C-11.29493283 193.1472997 28.5474573 196.05052159 67.21362305 200.67871094 C67.94851959 200.76569244 68.68341614 200.85267395 69.44058228 200.94229126 C71.4303419 201.17911776 73.41942294 201.42162616 75.40844727 201.66455078 C78.96239027 201.99648727 82.43293253 202.05910206 86 202 C85.54109375 201.29875 85.0821875 200.5975 84.609375 199.875 C75.15879674 185.26234118 70.12854168 171.54648143 73.38671875 153.90625 C76.35594937 142.12434289 83.45321585 134.16598684 92 126 C93.00137541 125.0013773 94.00156671 124.00156426 95 123 C81.90827331 122.19359863 68.86614493 121.7965094 55.75 121.8125 C54.81613464 121.81310425 53.88226929 121.8137085 52.92010498 121.81433105 C0.08761553 121.90529341 -52.33796849 126.20958522 -104.62213135 133.66149902 Z M-115.375 268.6875 C-116.37624908 268.83788727 -117.37749817 268.98827454 -118.40908813 269.14321899 C-121.24001933 269.57146229 -124.06944727 270.00835333 -126.8984375 270.44921875 C-128.15153465 270.6396022 -128.15153465 270.6396022 -129.4299469 270.83383179 C-136.99277878 272.03610336 -142.3551086 273.62548107 -147.8125 279.25 C-148.32949463 279.77867676 -148.84648926 280.30735352 -149.37915039 280.85205078 C-162.84958939 295.08551665 -169.6604848 312.01335834 -169.26953125 331.71875 C-168.42506595 350.22210782 -158.66801609 367.2001441 -147 381 C-146.06560904 382.12042939 -145.13200218 383.2415132 -144.19921875 384.36328125 C-143.47347656 385.23339844 -142.74773438 386.10351562 -142 387 C-141.24976563 386.55269531 -140.49953125 386.10539063 -139.7265625 385.64453125 C-114.46524005 370.72317076 -87.79704228 364.93998956 -58.47265625 364.796875 C-57.49841202 364.78986069 -56.52416779 364.78284637 -55.520401 364.77561951 C-52.36771992 364.75814461 -49.21522785 364.75175997 -46.0625 364.75 C-44.976203 364.74932526 -43.88990601 364.74865051 -42.77069092 364.74795532 C15.38816426 364.80502296 71.86339507 375.80750996 128.21234131 389.3883667 C132.13010117 390.33046703 136.03871062 391.25497756 140 392 C138.37312664 388.52214318 136.33851888 385.40527618 134.25 382.1875 C121.86327844 362.42013331 117.17747686 338.19201446 122.18237305 315.22900391 C122.98112009 312.09964502 123.95111859 309.05379242 125 306 C125.36222656 304.9378125 125.72445313 303.875625 126.09765625 302.78125 C133.25817909 283.94543399 146.70295738 270.94081715 163 260 C164.34137712 259.0108159 165.67883935 258.01602772 167 257 C161.24889698 256.21598246 155.55427387 255.73630172 149.7578125 255.46484375 C148.86230682 255.42168533 147.96680115 255.37852692 147.04415894 255.33406067 C59.28586648 251.23285199 -28.50170661 255.57259219 -115.375 268.6875 Z M-9 384 C-9.3403125 385.27230469 -9.680625 386.54460937 -10.03125 387.85546875 C-14.8763158 405.59630877 -20.84273962 422.56000888 -29.43359375 438.84765625 C-30.68503876 441.36615033 -31.39983906 443.30893229 -32 446 C33.98743489 446.52581379 33.98743489 446.52581379 99.91546631 444.18682861 C103.25799936 443.98437311 106.60090546 443.78883958 109.94384766 443.59326172 C143.7251663 441.59318749 177.36714917 438.73467807 211 435 C207.87490137 433.3115049 204.78223167 432.24702253 201.37597656 431.25097656 C200.23353989 430.91541245 199.09110321 430.57984833 197.91404724 430.2341156 C196.04620323 429.69283775 196.04620323 429.69283775 194.140625 429.140625 C192.82000238 428.75576522 191.49941085 428.37079875 190.17884827 427.98573303 C185.87154171 426.73244651 181.56105394 425.49032504 177.25 424.25 C176.51385342 424.03791775 175.77770683 423.82583549 175.01925278 423.60732651 C125.97181892 409.4832966 76.59019035 396.87718178 26.1875 388.625 C25.44343903 388.50294189 24.69937805 388.38088379 23.93276978 388.25512695 C12.98995458 386.47733434 2.02644131 385.14197524 -9 384 Z " fill="#000000" transform="translate(1024,1)"/>
<path d="M0 0 C7.25440751 1.63747781 15.17598216 -0.8768444 22.3515625 -2.265625 C57.96809612 -8.85454968 95.19019595 -10.3161402 126.9765625 9.671875 C130.5002608 12.14825186 133.74380246 14.83030609 136.9765625 17.671875 C138.20439453 18.66767578 138.20439453 18.66767578 139.45703125 19.68359375 C157.19059025 34.5577882 168.47128623 58.4369711 171.6953125 81.16015625 C174.04476245 110.49564941 167.49041002 137.3098953 148.30859375 160.0859375 C130.93388885 179.35236069 110.89523419 190.96050666 87.9765625 202.671875 C86.84186523 203.25291992 85.70716797 203.83396484 84.53808594 204.43261719 C28.53736009 232.8491907 -35.10409551 249.05139063 -96.3984375 261.859375 C-97.10898285 262.0102356 -97.8195282 262.16109619 -98.55160522 262.31652832 C-131.41217111 269.24500985 -164.96244164 273.38978154 -198.2109375 277.984375 C-199.25187183 278.12850201 -200.29280617 278.27262901 -201.36528397 278.4211235 C-243.39456025 284.23180162 -285.50336883 289.30008577 -327.64941788 294.17721176 C-331.61150007 294.63574623 -335.57336036 295.09616649 -339.53516036 295.55713189 C-426.16983294 305.63400313 -512.67012447 313.10940866 -599.96337891 312.93261719 C-605.64838488 312.92119639 -611.33320401 312.92804002 -617.01820374 312.93949413 C-655.26073166 313.00479245 -693.39257025 311.87095947 -731.5234375 308.859375 C-732.60967407 308.77506226 -733.69591064 308.69074951 -734.81506348 308.60388184 C-809.72983016 302.75247121 -883.36632741 289.27855128 -956.30944824 271.33929443 C-958.99506066 270.67885338 -961.68157681 270.02218527 -964.36816406 269.36572266 C-1038.11410472 251.28691705 -1113.93296603 230.85960712 -1182.0234375 196.671875 C-1183.39556396 195.98375732 -1183.39556396 195.98375732 -1184.79541016 195.28173828 C-1206.27867584 184.43266957 -1229.06676884 172.61655029 -1248.0234375 157.671875 C-1247.5284375 155.691875 -1247.5284375 155.691875 -1247.0234375 153.671875 C-1238.43221661 157.90828101 -1229.89980759 162.24557925 -1221.41064453 166.68334961 C-1128.73892321 215.06546484 -1025.32964845 236.9126131 -768.0859375 278.921875 C-766.7105632 279.03784531 -766.7105632 279.03784531 -765.30740356 279.15615845 C-758.21769023 279.74389135 -751.12349314 280.22758831 -744.0234375 280.671875 C-743.35512909 280.71447323 -742.68682068 280.75707146 -741.9982605 280.80096054 C-711.71204106 282.7205852 -681.46700693 283.03589834 -651.12649536 282.98993301 C-647.34124712 282.98428974 -643.55600338 282.98147069 -639.77075195 282.97885132 C-603.00189866 282.94188667 -566.38202676 282.50326065 -529.69232178 279.92834473 C-526.48740433 279.70430814 -523.28212209 279.48680137 -520.07653427 279.27260017 C-457.19219271 275.06777394 -394.56453416 268.40182932 -332.0234375 260.671875 C-331.18558464 260.56835976 -330.34773178 260.46484451 -329.48448944 260.35819244 C-281.81391699 254.46320153 -234.21237703 248.11457191 -186.66670227 241.2839241 C-183.32581341 240.80439273 -179.98465105 240.32680784 -176.64343262 239.84957886 C-145.19936958 235.35142695 -113.76646893 230.76827776 -82.8359375 223.421875 C-82.04623566 223.23689453 -81.25653381 223.05191406 -80.44290161 222.86132812 C-23.2323608 209.45726842 37.80864805 195.00644046 88.421875 164.1796875 C90.91017303 162.711059 93.42580425 161.46366471 96.0390625 160.234375 C101.85532329 157.38217019 106.89026221 153.65863685 111.9765625 149.671875 C112.75 149.07761719 113.5234375 148.48335937 114.3203125 147.87109375 C127.66246086 136.90140487 137.49504447 119.73231142 139.9765625 102.671875 C141.52265635 81.69224034 135.50564034 61.86932226 121.9765625 45.609375 C107.59989874 30.24205038 86.70479499 23.55415725 66.12890625 22.7265625 C58.24513229 22.54265156 49.55897093 22.41247047 41.9765625 24.671875 C42.41226562 25.13335937 42.84796875 25.59484375 43.296875 26.0703125 C55.95542842 39.93444244 61.68671001 57.01634646 61.22265625 75.796875 C60.14629203 88.3715427 56.34543848 101.72885702 46.9765625 110.671875 C34.94295211 119.44285159 21.91997332 120.23282164 7.47460938 118.17236328 C3.51260105 117.52871389 -0.44354537 116.85756606 -4.3984375 116.171875 C-22.86675765 112.98920087 -41.45441902 109.97151397 -57.7734375 121.421875 C-62.04490147 124.75174618 -66.10172061 128.30233878 -70.05078125 132.0078125 C-74.45044287 135.71921022 -77.99170552 136.06721701 -83.62109375 135.91015625 C-86.94029353 135.58093481 -88.57794645 134.97351363 -91.0234375 132.671875 C-96.17311169 126.19654211 -95.82346985 118.5579082 -95.0234375 110.671875 C-88.1086152 73.76692454 -64.16970429 39.2057562 -33.55859375 17.9921875 C-21.1120301 9.671875 -21.1120301 9.671875 -17.0234375 9.671875 C-17.0234375 9.011875 -17.0234375 8.351875 -17.0234375 7.671875 C-42.55365298 3.3394748 -67.38986589 5.16756617 -90.0234375 18.671875 C-89.98863281 19.3009375 -89.95382812 19.93 -89.91796875 20.578125 C-89.70507214 27.30971308 -89.92148733 33.30592907 -94.67578125 38.46484375 C-98.94601869 42.26562591 -102.16252521 43.817242 -107.9609375 43.921875 C-108.81558594 43.94765625 -109.67023438 43.9734375 -110.55078125 44 C-113.54678326 43.60242627 -114.87225093 42.76940386 -117.0234375 40.671875 C-117.96108531 35.98363597 -116.99805771 33.14914303 -114.5234375 29.234375 C-100.24052481 9.66149465 -77.55848931 -1.48067996 -54.19189453 -5.85864258 C-36.1052893 -8.53860419 -16.92000866 -6.88779114 0 0 Z M-101.3984375 25.796875 C-101.98882813 26.27125 -102.57921875 26.745625 -103.1875 27.234375 C-106.92320513 30.34746261 -109.12912814 33.07919692 -111.0234375 37.671875 C-106.98844038 39.28587385 -103.95320353 38.21571165 -100.0234375 36.671875 C-95.97845446 32.73621583 -94.14324468 28.42744007 -93.8984375 22.796875 C-93.9396875 22.095625 -93.9809375 21.394375 -94.0234375 20.671875 C-96.52713322 20.671875 -99.45804361 24.18266801 -101.3984375 25.796875 Z M-35.0234375 53.671875 C-35.8690625 54.47625 -36.7146875 55.280625 -37.5859375 56.109375 C-38.3903125 56.955 -39.1946875 57.800625 -40.0234375 58.671875 C-40.66539063 59.33058594 -41.30734375 59.98929688 -41.96875 60.66796875 C-51.21547716 70.47852074 -60.39894477 82.86558744 -65.0234375 95.671875 C-64.6934375 96.661875 -64.3634375 97.651875 -64.0234375 98.671875 C-62.75113281 98.16527344 -62.75113281 98.16527344 -61.453125 97.6484375 C-40.66013867 89.74253281 -21.74383683 92.01679684 -0.4609375 96.234375 C2.06920768 96.7315968 4.59982235 97.22570941 7.13206482 97.71214294 C8.68938014 98.01162855 10.24553545 98.31724066 11.80018616 98.63026428 C19.41171037 100.10094834 25.9892877 100.32766435 32.9765625 96.671875 C38.42233289 92.34001219 41.50725567 86.40986162 42.9765625 79.671875 C44.33323997 64.40410746 42.36328715 50.23036962 32.9765625 37.671875 C29.37290715 33.59515293 25.54241578 29.66993529 20.9765625 26.671875 C-0.05024785 26.671875 -20.49087204 39.73357802 -35.0234375 53.671875 Z " fill="#000000" transform="translate(1443.0234375,450.328125)"/>
<path d="M0 0 C4.11338234 0.46619851 7.13019124 1.97798985 10.70703125 4 C11.83375244 4.63083496 12.96047363 5.26166992 14.12133789 5.91162109 C14.72060089 6.25086609 15.31986389 6.59011108 15.93728638 6.93963623 C19.19372364 8.78103075 22.46488169 10.59598378 25.734375 12.4140625 C26.4160524 12.79374176 27.0977298 13.17342102 27.80006409 13.56460571 C62.09671953 32.63966511 97.17276596 50.26423547 133.06097412 66.14117432 C134.95422639 66.97972613 136.84574104 67.82207944 138.73681641 68.66552734 C214.09411099 102.2325232 292.93093635 127.95833936 628.47167969 179.65893555 C635.01091607 179.87112799 641.49089095 180.3373151 648 181 C648 182.32 648 183.64 648 185 C556.24324088 191.67580136 462.66732434 184.41648942 87.19819641 69.52566528 C81.8491854 66.90391721 76.44251821 64.42070213 71 62 C76.26980548 68.0582693 81.5942655 74.06255391 87 80 C87.4935498 80.54543457 87.98709961 81.09086914 88.49560547 81.65283203 C97.85327495 91.96776387 107.74381419 101.58285919 118 111 C118.96164063 111.88816406 119.92328125 112.77632813 120.9140625 113.69140625 C126.75829105 119.02542437 132.82394979 124.0558964 139 129 C139.5151416 129.41475586 140.0302832 129.82951172 140.56103516 130.25683594 C160.90034805 146.60455098 182.4124775 161.75995293 205.00341797 174.83984375 C207.18843998 176.10949704 209.36127577 177.3988712 211.53515625 178.6875 C244.17648805 197.8671187 278.58826987 212.79241262 314.35400391 225.0612793 C316.93230921 225.97598532 319.46741286 226.96613285 322 228 C322 229.32 322 230.64 322 232 C322.66902344 231.95359375 323.33804687 231.9071875 324.02734375 231.859375 C342.35883648 231.17040615 360.65738758 237.72711938 375 249 C375.63421875 249.47050781 376.2684375 249.94101562 376.921875 250.42578125 C381.90576079 254.34011633 386.15233578 259.32340619 389 265 C388.6875 267.3046875 388.6875 267.3046875 388 269 C386.203125 269.68359375 386.203125 269.68359375 384 270 C382.421875 268.84765625 382.421875 268.84765625 380.75 267.0625 C365.09241591 252.45851036 343.11442521 250.13037255 322.69970703 250.82519531 C308.25205923 251.76067332 294.59376892 258.57479884 284.1640625 268.4609375 C276.02511862 278.01023989 273.95681229 288.8002159 274.73046875 300.95214844 C275.61901213 307.70314648 279.37835624 313.84821664 284.25 318.5 C296.10831189 327.32237646 312.02352399 328.22868684 326.15063477 326.2277832 C336.53697762 324.58051447 347.21819846 321.59028195 354 313 C356.47934039 309.45808516 356.36570056 306.24212651 356 302 C354.17157234 296.81945496 351.7467292 294.67003518 347 292 C344.11788698 291.03929566 342.30149956 290.89418117 339.3125 290.9375 C338.10013672 290.95103516 338.10013672 290.95103516 336.86328125 290.96484375 C336.24839844 290.97644531 335.63351562 290.98804688 335 291 C335.103125 291.86625 335.20625 292.7325 335.3125 293.625 C334.88974151 298.19079167 333.27724893 299.86524015 330 303 C325.10194593 305.56034644 320.25449577 305.36442708 315 304 C312.18007283 302.17879704 310.49654522 300.99309044 309 298 C308.45145781 294.02306912 308.20155874 291.4656319 310.140625 287.90625 C315.76634763 280.80582338 324.82022917 276.02345417 333.6875 274.25 C345.2641626 272.99846891 356.26135873 273.3003775 365.8125 280.625 C373.39798769 287.82756644 376.987203 296.96126087 377.375 307.25 C377.1427612 317.92076163 373.83659172 325.10376666 366.40234375 332.71875 C365.60957031 333.4715625 364.81679688 334.224375 364 335 C363.32066406 335.6496875 362.64132812 336.299375 361.94140625 336.96875 C350.40567626 346.91259286 332.90161952 351.18041093 318 352 C317.0615625 352.05285156 316.123125 352.10570312 315.15625 352.16015625 C297.47091732 352.66357537 282.15452951 348.67931349 268 338 C267.113125 337.401875 266.22625 336.80375 265.3125 336.1875 C254.37899779 325.84499791 249.27260039 311.02378486 248.6875 296.25 C249.18271685 279.72539566 255.00901013 263.99561274 266.66015625 252.10546875 C280.10938365 240.00340937 296.42232895 234.00740067 314 231 C313.26289795 230.8047876 312.5257959 230.6095752 311.76635742 230.40844727 C274.31307728 220.43112718 238.70406759 207.39910612 204 190 C203.0934668 189.54802246 202.18693359 189.09604492 201.25292969 188.63037109 C166.91044487 171.40882845 134.52020766 149.58083316 105.55224609 124.34179688 C103.8774047 122.89402583 102.18478767 121.46918455 100.48828125 120.046875 C93.82981668 114.4449096 87.52679111 108.66863318 81.4453125 102.4453125 C79.36505063 100.36505063 77.25239446 98.45013422 75 96.5625 C70.0249812 92.30835127 65.74468504 87.40255615 61.38476562 82.53759766 C60.06417865 81.07126184 58.7277749 79.61921677 57.390625 78.16796875 C51.67668934 71.96604169 46.27545714 65.57708137 41 59 C40.09938688 57.89157874 39.19832492 56.78352207 38.296875 55.67578125 C29.91169173 45.33134986 21.91329058 34.70814515 14 24 C13.37254883 23.15276367 12.74509766 22.30552734 12.09863281 21.43261719 C10.28765966 18.98114336 8.48576943 16.52330309 6.6875 14.0625 C6.14230713 13.32346436 5.59711426 12.58442871 5.03540039 11.82299805 C2.50067176 8.32896338 0.34167526 5.15512761 -1 1 C-0.67 0.67 -0.34 0.34 0 0 Z M323 293 C322.67 293.66 322.34 294.32 322 295 C323.65 294.67 325.3 294.34 327 294 C325.68 293.67 324.36 293.34 323 293 Z " fill="#000000" transform="translate(1,263)"/>
<path d="M0 0 C3.56260913 3.10639482 6.97684199 6.35078569 10.37890625 9.63134766 C11.1575 10.34677734 11.93609375 11.06220703 12.73828125 11.79931641 C33.18757012 31.12461954 49.48031092 62.06206197 50.6171875 90.31103516 C51.16513886 115.74429538 43.66257741 136.56583853 26.01171875 155.11962891 C7.06212576 173.1062098 -16.75042638 181.19885107 -42.60546875 180.83837891 C-55.62592872 180.44153243 -66.85761907 175.80699744 -77.62109375 168.63134766 C-78.43191406 169.48857422 -79.24273438 170.34580078 -80.078125 171.22900391 C-91.16273814 182.75498006 -102.61907291 191.89081635 -119.1875 192.83447266 C-138.04066148 193.05562411 -153.61546056 187.47911562 -167.3125 174.20947266 C-170.78832089 170.32784526 -173.33440131 166.29806692 -175.62109375 161.63134766 C-175.95882812 161.02291016 -176.2965625 160.41447266 -176.64453125 159.78759766 C-180.07396715 152.6140987 -179.83666002 142.47300991 -177.9296875 134.87744141 C-175.72463101 129.57238918 -172.23878905 125.05699491 -168.62109375 120.63134766 C-169.20117188 120.67775391 -169.78125 120.72416016 -170.37890625 120.77197266 C-176.04036861 121.03355838 -179.15486768 120.45954143 -183.62109375 116.63134766 C-186.42919511 114.01045305 -186.61063495 112.72248863 -187.05859375 108.81884766 C-186.83996956 104.31182581 -185.73589075 100.94384496 -182.62109375 97.63134766 C-176.97037352 94.93780602 -170.5938429 93.89914252 -164.46875 92.83447266 C-162.71655119 92.516244 -160.96443846 92.19754115 -159.21240234 91.87841797 C-158.30866882 91.71587524 -157.4049353 91.55333252 -156.47381592 91.38586426 C-143.04532722 88.95777966 -129.67727623 86.4376301 -116.49609375 82.88134766 C-115.48683838 82.61225586 -114.47758301 82.34316406 -113.43774414 82.06591797 C-107.77813855 80.47502529 -102.79280728 78.43015733 -97.62109375 75.63134766 C-107.31480235 68.06731746 -116.54248389 65.94286782 -128.7109375 67.20947266 C-131.37319253 67.5954103 -133.99087197 68.06945866 -136.62109375 68.63134766 C-136.62109375 69.29134766 -136.62109375 69.95134766 -136.62109375 70.63134766 C-135.63109375 70.96134766 -134.64109375 71.29134766 -133.62109375 71.63134766 C-132.6009013 75.88214953 -132.28976695 77.95595072 -134.24609375 81.94384766 C-137.54030254 85.67150497 -139.79286689 86.48210465 -144.68359375 86.88134766 C-148.84787518 86.52694073 -150.66173388 85.76202179 -153.37109375 82.56884766 C-155.11506387 78.47051788 -155.2730374 75.0205962 -154.62109375 70.63134766 C-150.94917944 61.5313861 -142.86344176 55.83871779 -134.2734375 51.63916016 C-119.02238975 45.84421123 -102.33984943 47.3920098 -87.66796875 53.95166016 C-79.98375219 57.79376844 -73.97044723 62.59339637 -69.62109375 70.06884766 C-68.18327459 75.19107842 -67.42812694 79.72581072 -69.5 84.77197266 C-78.22257788 99.85656279 -96.89015326 104.29451498 -112.62109375 108.63134766 C-115.9574366 109.42752038 -119.23521976 110.07628635 -122.62109375 110.63134766 C-122.73195313 111.38158203 -122.8428125 112.13181641 -122.95703125 112.90478516 C-124.9559921 121.11228322 -133.66511818 126.11502429 -140.20166016 130.68652344 C-145.57514534 134.46027932 -150.91649441 138.47087139 -153.62109375 144.63134766 C-153.93935981 149.29924984 -151.94486881 151.76781643 -149.05859375 155.19384766 C-143.04117515 161.58802771 -136.41757176 165.93253368 -127.54296875 167.00244141 C-116.89495747 167.22536775 -109.52312649 164.1112455 -101.73828125 156.88916016 C-96.96916144 151.80327225 -92.83599377 146.17571381 -88.62109375 140.63134766 C-86.60955784 137.99905432 -84.58667157 135.37590608 -82.55859375 132.75634766 C-82.09348389 132.14331787 -81.62837402 131.53028809 -81.14916992 130.89868164 C-80.01963668 129.43904498 -78.82589054 128.02950689 -77.62109375 126.63134766 C-76.96109375 126.63134766 -76.30109375 126.63134766 -75.62109375 126.63134766 C-74.60302734 128.08081055 -74.60302734 128.08081055 -73.51953125 130.10400391 C-73.11613525 130.83594971 -72.71273926 131.56789551 -72.29711914 132.32202148 C-71.86778076 133.10472412 -71.43844238 133.88742676 -70.99609375 134.69384766 C-65.64031337 144.05803623 -60.55182262 150.56798307 -49.9296875 153.97119141 C-31.9830325 157.55204701 -14.68498944 152.5581466 0.37890625 142.63134766 C3.98373998 139.85986386 7.21411091 136.89150406 10.37890625 133.63134766 C10.94996094 133.08091797 11.52101563 132.53048828 12.109375 131.96337891 C21.57976645 122.10345979 24.84369777 108.21498698 24.81054688 94.97949219 C24.42695202 79.63260462 18.90748432 65.80170741 11.37890625 52.63134766 C10.82332031 51.64779297 10.26773438 50.66423828 9.6953125 49.65087891 C-3.73790021 27.32661893 -24.05280148 12.0102005 -47.62109375 1.63134766 C-48.24242187 1.35693848 -48.86375 1.0825293 -49.50390625 0.79980469 C-80.16284959 -12.16450268 -126.17517578 -17.74224436 -157.43359375 -5.61865234 C-167.61195388 -1.38139392 -175.81388917 4.31603701 -183.56323242 12.07543945 C-187.20373106 15.63134766 -187.20373106 15.63134766 -191.62109375 15.63134766 C-190.08808138 4.20529546 -177.79607462 -6.75483516 -168.97167969 -13.65917969 C-120.26168799 -49.25932266 -44.36507326 -37.45641577 0 0 Z M-141.62109375 71.63134766 C-143.20441905 72.88019036 -143.20441905 72.88019036 -144.62109375 74.63134766 C-144.62109375 75.95134766 -144.62109375 77.27134766 -144.62109375 78.63134766 C-142.97109375 78.30134766 -141.32109375 77.97134766 -139.62109375 77.63134766 C-139.62109375 76.31134766 -139.62109375 74.99134766 -139.62109375 73.63134766 C-140.28109375 72.97134766 -140.94109375 72.31134766 -141.62109375 71.63134766 Z " fill="#000000" transform="translate(920.62109375,439.36865234375)"/>
<path d="M0 0 C6.92699081 5.69747739 12.38869824 11.93700024 16.46484375 20.02734375 C16.46484375 21.34734375 16.46484375 22.66734375 16.46484375 24.02734375 C15.47484375 24.35734375 14.48484375 24.68734375 13.46484375 25.02734375 C12.93310547 24.40859375 12.93310547 24.40859375 12.390625 23.77734375 C4.97273474 15.73081872 -4.84676437 9.57324407 -15.53515625 7.02734375 C-16.48390625 6.80046875 -17.43265625 6.57359375 -18.41015625 6.33984375 C-33.07383241 4.87347613 -45.44098393 7.91017284 -58.28515625 14.90234375 C-59.04771729 15.31274902 -59.81027832 15.7231543 -60.59594727 16.14599609 C-66.12609297 19.32258434 -69.38413866 22.59837085 -71.46875 28.80859375 C-72.24211789 32.98118329 -72.66095916 36.32284745 -71.91015625 40.52734375 C-67.33607892 45.34216199 -60.17891522 45.84908199 -53.76953125 46.28125 C-49.6243866 46.35884384 -45.49242679 46.33996376 -41.34765625 46.27734375 C-39.84701197 46.26673719 -38.34636018 46.25714707 -36.84570312 46.24853516 C-26.74694603 46.16916481 -16.65625438 45.87022605 -6.57739258 45.20800781 C6.68587749 44.46117333 18.04403898 48.22923021 28.33984375 56.77734375 C37.03531645 65.06324708 41.39543953 75.2925434 41.8671875 87.18139648 C42.06235803 99.51102357 38.95988372 109.13389098 31.46484375 119.02734375 C47.28344127 116.15123511 63.02921173 108.66068108 72.40234375 95.15234375 C77.0216223 86.85079334 78.46571329 78.31413822 76.46484375 69.02734375 C74.05261322 60.98222895 69.10142761 53.79777472 61.71484375 49.58984375 C50.24646863 44.60840668 38.62282552 47.98459673 27.46484375 52.02734375 C26.08984375 50.02734375 26.08984375 50.02734375 25.46484375 47.02734375 C29.37505981 38.95838095 36.93842058 33.75248607 45.08984375 30.65234375 C56.32768486 27.26112655 67.58857279 28.10702789 78.0546875 33.31640625 C90.0663218 40.07182163 97.71536299 50.24121726 101.76953125 63.42578125 C104.61591052 78.16938624 102.89678825 91.93243625 95.15234375 104.83984375 C86.33275133 117.83615648 73.31024815 126.17004731 57.90234375 129.27734375 C48.06232489 130.80282153 39.04340191 130.0191042 29.46484375 127.02734375 C27.55078125 125.421875 27.55078125 125.421875 26.46484375 124.02734375 C26.0265625 124.40246094 25.58828125 124.77757812 25.13671875 125.1640625 C6.79832106 139.96150942 -22.84198128 143.59893861 -45.7421875 141.5546875 C-62.92399513 139.1658677 -77.47888742 132.35518596 -90.53515625 121.02734375 C-92.02015625 120.03734375 -92.02015625 120.03734375 -93.53515625 119.02734375 C-94.40140625 119.99671875 -95.26765625 120.96609375 -96.16015625 121.96484375 C-110.25861341 135.94983244 -128.84747411 141.90018928 -148.390625 142.05859375 C-168.53215494 141.22371168 -189.50098351 133.2375049 -203.53515625 118.4765625 C-206.91852412 114.33325849 -209.28904492 109.8630085 -211.53515625 105.02734375 C-212.12103516 103.78984375 -212.12103516 103.78984375 -212.71875 102.52734375 C-218.4714133 89.37839906 -219.51742514 74.03714597 -214.60546875 60.45703125 C-209.16427292 48.48640043 -199.59880754 39.94510118 -187.66015625 34.77734375 C-173.02969629 29.34187875 -157.42942017 29.55103754 -143.1171875 35.90234375 C-141.64670867 36.59890339 -140.18170495 37.30714919 -138.72265625 38.02734375 C-138.02253418 38.37152344 -137.32241211 38.71570313 -136.60107422 39.0703125 C-131.66519981 41.63721306 -131.66519981 41.63721306 -130.53515625 45.02734375 C-131.03015625 46.01734375 -131.03015625 46.01734375 -131.53515625 47.02734375 C-132.49035156 46.81078125 -133.44554687 46.59421875 -134.4296875 46.37109375 C-149.11069287 43.15569039 -164.05506339 42.20625532 -177.46875 50.45703125 C-186.13647137 57.04384409 -189.84615559 64.34178911 -191.34765625 74.90234375 C-192.10283964 85.03438753 -189.14642285 93.19375925 -183.91015625 101.65234375 C-174.67627886 110.88622114 -159.81959108 116.01116984 -146.91015625 116.27734375 C-136.36447792 116.11923763 -127.3410276 112.66926132 -118.53515625 107.02734375 C-117.89964844 106.62128906 -117.26414062 106.21523438 -116.609375 105.796875 C-108.15106906 99.47745102 -102.81889518 87.80654144 -97.82421875 78.72265625 C-97.39882812 78.16320312 -96.9734375 77.60375 -96.53515625 77.02734375 C-95.54515625 77.02734375 -94.55515625 77.02734375 -93.53515625 77.02734375 C-91.83935062 78.94905599 -90.34568574 80.83502865 -88.84765625 82.90234375 C-87.94562001 84.10309565 -87.0432731 85.30361423 -86.140625 86.50390625 C-84.58890891 88.59424849 -83.05205883 90.69336155 -81.5234375 92.80078125 C-72.50299127 104.79022131 -59.7458785 112.99088819 -44.91015625 115.74609375 C-28.40691408 117.70042506 -5.65551946 114.77641036 8.71484375 105.71484375 C13.92884806 100.61933954 15.6842434 96.20700453 15.96484375 88.90234375 C15.76645642 83.8146687 15.07254966 80.82006022 11.46484375 77.02734375 C2.33913666 69.43641467 -6.56472105 70.72477544 -17.97265625 71.52734375 C-26.05246949 72.06131896 -34.12668443 72.1735562 -42.22265625 72.21484375 C-43.42140381 72.22773437 -44.62015137 72.240625 -45.85522461 72.25390625 C-61.85236016 72.27142656 -77.39411438 71.0552934 -89.3671875 59.5390625 C-97.4332636 50.194041 -98.22491647 39.98688271 -97.71435547 28.16015625 C-96.97885779 19.40633106 -92.9364344 11.78528096 -87.53515625 5.02734375 C-87.00664063 4.35058594 -86.478125 3.67382812 -85.93359375 2.9765625 C-64.77435966 -21.02565238 -23.50658388 -18.11052445 0 0 Z " fill="#000000" transform="translate(1234.53515625,466.97265625)"/>
<path d="M0 0 C0.82146515 -0.00983917 1.6429303 -0.01967834 2.48928833 -0.02981567 C37.19265131 -0.36047999 37.19265131 -0.36047999 51.07421875 4.23828125 C51.81027344 4.4796582 52.54632812 4.72103516 53.3046875 4.96972656 C76.69914652 12.97256431 94.1535991 29.47092345 105.58984375 51.10546875 C115.91135357 72.5567994 117.96726989 96.00491654 111.0078125 118.71875 C106.15333969 132.12863035 98.8905633 142.17249297 89.07421875 152.23828125 C88.49027344 152.89570312 87.90632812 153.553125 87.3046875 154.23046875 C73.5559128 169.3367174 49.17314287 179.44187482 29.07421875 181.23828125 C23.40664776 181.43285915 17.74258457 181.35789507 12.07421875 181.23828125 C12.07421875 179.91828125 12.07421875 178.59828125 12.07421875 177.23828125 C13.09257813 177.09132813 14.1109375 176.944375 15.16015625 176.79296875 C37.53364404 173.34431309 57.15886894 165.61845646 74.07421875 150.23828125 C74.72777344 149.65433594 75.38132812 149.07039062 76.0546875 148.46875 C89.47936766 135.81458128 97.85353357 117.6219376 98.54736328 99.22607422 C98.79424213 76.93066988 90.35455133 58.09276355 74.99609375 42.0703125 C58.76763269 26.53306367 37.25348063 21.89338497 15.40234375 22.30859375 C5.1273493 21.66316325 5.1273493 21.66316325 -3.92578125 24.23828125 C-3.2709375 24.61597656 -2.61609375 24.99367188 -1.94140625 25.3828125 C15.14278043 35.68641096 28.10846868 49.52382906 33.07421875 69.23828125 C35.76605896 88.00020514 31.98871784 104.39412541 21.16015625 119.99609375 C12.67651936 130.29515911 0.19056847 136.46848375 -12.92578125 138.23828125 C-26.83139384 139.26272855 -40.36515788 137.43837579 -52.68115234 130.73730469 C-57.60525168 127.99597244 -57.60525168 127.99597244 -62.92578125 126.23828125 C-66.45053302 127.28081346 -68.43362923 128.78525745 -71.23828125 131.13671875 C-79.19172436 137.3561263 -92.05649979 139.06201655 -101.92578125 138.23828125 C-114.82212127 136.61694208 -124.84674147 132.63748107 -134.92578125 124.23828125 C-137.90137287 125.25848409 -139.86968687 126.18825113 -142.23828125 128.30078125 C-145.67266286 130.77673078 -148.76758111 131.44342964 -152.92578125 131.23828125 C-156.47676591 130.13223685 -158.9927516 129.04690695 -161.80078125 126.61328125 C-164.44590104 121.02913947 -164.44938338 115.93584555 -162.48828125 110.11328125 C-155.14428157 92.18894306 -144.18926998 76.2819752 -130.92578125 62.23828125 C-129.85925979 60.97082096 -128.79666034 59.70004861 -127.73828125 58.42578125 C-112.11298829 40.66491295 -92.52029341 27.53874145 -71.92578125 16.23828125 C-95.87672271 12.95492085 -120.93129043 12.32902294 -141.92578125 26.23828125 C-144.1331334 28.09055353 -146.23015155 29.98056602 -148.26953125 32.015625 C-148.81609375 32.41910156 -149.36265625 32.82257813 -149.92578125 33.23828125 C-150.91578125 32.90828125 -151.90578125 32.57828125 -152.92578125 32.23828125 C-152.00452501 26.01980165 -147.11922652 22.33532108 -142.36328125 18.73828125 C-119.99699866 2.4103534 -90.0910379 0.35155266 -63.41455078 4.31567383 C-61.77648813 4.58701224 -60.14043338 4.87094069 -58.50732422 5.1706543 C-48.59821803 6.98908644 -40.24643139 5.93544951 -30.42578125 3.80078125 C-28.27032847 3.34000482 -26.11408598 2.88290545 -23.95703125 2.4296875 C-23.01408203 2.22545166 -22.07113281 2.02121582 -21.09960938 1.81079102 C-14.0835498 0.54520181 -7.120698 0.07057992 0 0 Z M-107.43164062 72.72412109 C-111.27335817 76.61731263 -114.58472039 80.91950685 -117.92578125 85.23828125 C-118.6321875 86.06714844 -119.33859375 86.89601563 -120.06640625 87.75 C-120.72125 88.52988281 -121.37609375 89.30976562 -122.05078125 90.11328125 C-122.63085938 90.79132813 -123.2109375 91.469375 -123.80859375 92.16796875 C-125.1474336 94.21585717 -125.1474336 94.21585717 -124.78125 96.75 C-122.48318456 103.43432733 -117.16626424 107.43088315 -111.11328125 110.67578125 C-102.69152208 114.52962865 -94.71457823 115.43420742 -85.92578125 112.23828125 C-77.66650535 108.79139243 -73.10461689 103.24397797 -68.0546875 96.1640625 C-66.43857781 93.94302368 -64.94382993 92.07464066 -62.92578125 90.23828125 C-62.33410156 90.97433594 -61.74242187 91.71039062 -61.1328125 92.46875 C-60.34261719 93.44457031 -59.55242187 94.42039062 -58.73828125 95.42578125 C-57.96097656 96.38871094 -57.18367188 97.35164062 -56.3828125 98.34375 C-48.21211658 107.96932341 -40.99925461 112.01868835 -28.92578125 115.23828125 C-28.25160156 115.43292969 -27.57742188 115.62757813 -26.8828125 115.828125 C-18.46386974 117.59257408 -10.36556947 116.48599817 -2.92578125 112.23828125 C4.83240968 106.89067107 10.93363895 99.05530512 13.6015625 89.94921875 C15.77042977 77.50959985 13.97287837 67.31290015 7.32421875 56.61328125 C-1.72756564 43.85138277 -16.35181994 33.86653005 -30.92578125 28.23828125 C-58.71126819 28.23828125 -88.85256374 54.70058381 -107.43164062 72.72412109 Z " fill="#000000" transform="translate(551.92578125,465.76171875)"/>
<path d="M0 0 C1.32 0 2.64 0 4 0 C7.72572623 12.6613323 11.24367791 25.324459 13.9375 38.25 C14.14850342 39.25417969 14.35950684 40.25835937 14.5769043 41.29296875 C15.45120795 45.6196034 16.10684113 49.57077069 16 54 C17.30130859 53.75878418 17.30130859 53.75878418 18.62890625 53.51269531 C42.28464952 49.91499392 67.02240315 54.41162151 90 60 C90 60.66 90 61.32 90 62 C87.9888816 63.63216879 85.96757156 65.16678676 83.875 66.6875 C75.09940378 73.29963925 69.69086461 78.97809693 67 90 C65.79670069 99.04502519 67.93394992 106.55776656 73.375 113.8125 C75.44861312 116.34740417 77.27870513 118.21811705 79.875 120.25 C82.50368763 122.41480157 82.4973048 123.72713336 83 127 C80.85400757 126.85652682 78.70821331 126.71008875 76.5625 126.5625 C74.77005859 126.44068359 74.77005859 126.44068359 72.94140625 126.31640625 C70.20915371 126.09706784 67.52996058 125.8245509 64.81445312 125.48632812 C60.20249974 124.96941829 55.66414855 124.87097325 51.02734375 124.90234375 C49.81456505 124.90446617 49.81456505 124.90446617 48.57728577 124.90663147 C46.03065058 124.91216586 43.48410797 124.9247054 40.9375 124.9375 C39.19596482 124.9425235 37.45442825 124.94708491 35.71289062 124.95117188 C31.47522552 124.96211366 27.23762837 124.97933174 23 125 C23 126.65 23 128.3 23 130 C23.99 129.67 24.98 129.34 26 129 C30.93075828 128.725445 35.8746817 128.75404206 40.8125 128.75 C41.91469376 128.74898788 41.91469376 128.74898788 43.03915405 128.74795532 C68.05387374 128.78415412 92.4937928 132.08940505 117 137 C118.29035156 137.25749023 119.58070313 137.51498047 120.91015625 137.78027344 C124.8188021 138.56507746 128.72243051 139.37298322 132.625 140.1875 C133.83559082 140.43733643 135.04618164 140.68717285 136.29345703 140.94458008 C137.40575684 141.18329834 138.51805664 141.4220166 139.6640625 141.66796875 C141.14060303 141.98157349 141.14060303 141.98157349 142.64697266 142.30151367 C145 143 145 143 147 145 C146.48203857 145.26627197 145.96407715 145.53254395 145.43041992 145.80688477 C121.16108777 157.35794398 121.16108777 157.35794398 105.6875 178.3125 C102.75384513 194.04755792 108.05446182 208.56611978 116.7421875 221.6171875 C121.40210871 227.71708436 126.90721656 233.04233834 132.42797852 238.35546875 C133.01893311 238.92910156 133.6098877 239.50273437 134.21875 240.09375 C134.75435547 240.60615234 135.28996094 241.11855469 135.84179688 241.64648438 C137 243 137 243 137 245 C131.95502289 245.93486613 127.99562237 245.90183003 122.96875 244.92578125 C122.30906723 244.80199097 121.64938446 244.67820068 120.9697113 244.55065918 C119.55183361 244.28454699 118.13476652 244.01408514 116.71847534 243.73965454 C112.89233069 243.00295261 109.05762685 242.3140354 105.22265625 241.625 C104.44185196 241.48447708 103.66104767 241.34395416 102.85658264 241.19917297 C76.7544793 236.54604973 50.42387576 234.71150841 24 233 C23.72410034 234.8713562 23.72410034 234.8713562 23.44262695 236.78051758 C22.12222604 245.55320251 20.78192696 254.18427663 18.1875 262.6875 C17.92815674 263.55995361 17.66881348 264.43240723 17.40161133 265.33129883 C12.96335249 279.99270935 7.07395439 293.41800756 0 307 C-1.32 306.67 -2.64 306.34 -4 306 C-3.87955322 305.4006665 -3.75910645 304.80133301 -3.63500977 304.18383789 C-2.38263071 297.93885849 -1.14595341 291.69113151 0.0625 285.4375 C0.23587891 284.55642578 0.40925781 283.67535156 0.58789062 282.76757812 C2.69518397 271.82741534 3.25172253 261.0506487 3.5625 249.9375 C3.60578755 248.4850161 3.64940474 247.03254199 3.69335938 245.58007812 C3.79937254 242.05349009 3.90092748 238.52679065 4 235 C-18.35678869 238.01853459 -38.78351781 243.16518261 -56.765625 257.43359375 C-59.01378363 259.009663 -60.26132153 259.8825518 -63 260 C-66.62452695 258.09970362 -69.76776882 255.50059436 -73 253 C-73.63550781 252.53207031 -74.27101563 252.06414062 -74.92578125 251.58203125 C-86.61072478 242.42211 -95.09410348 226.62775579 -97 212 C-98.4145437 191.45122675 -94.86880784 173.96433295 -81.4375 157.8125 C-80.76750977 157.00147827 -80.76750977 157.00147827 -80.08398438 156.17407227 C-74.78174232 150.11229371 -68.20036493 148.29609592 -60.7109375 146.22265625 C-59.36317734 145.84372475 -59.36317734 145.84372475 -57.9881897 145.45713806 C-56.08445393 144.92384477 -54.17983861 144.39368264 -52.27441406 143.86645508 C-49.43006255 143.07776785 -46.5899671 142.27501389 -43.75 141.47070312 C-29.34232986 137.43277184 -14.84207666 133.99630993 0 132 C0.33 130.68 0.66 129.36 1 128 C-5.08308932 129.51924494 -11.16557606 131.04080402 -17.24609375 132.5703125 C-19.30989583 133.08854167 -21.37369792 133.60677083 -23.4375 134.125 C-25.01047852 134.52138672 -25.01047852 134.52138672 -26.61523438 134.92578125 C-27.62779297 135.17972656 -28.64035156 135.43367187 -29.68359375 135.6953125 C-30.58650146 135.92234863 -31.48940918 136.14938477 -32.41967773 136.38330078 C-33.27118408 136.58681152 -34.12269043 136.79032227 -35 137 C-35.87624023 137.21043945 -36.75248047 137.42087891 -37.65527344 137.63769531 C-42.86071037 138.44203396 -47.77092515 134.71164774 -52 132 C-58.90769599 126.11525899 -62.38590908 119.9698965 -63.30859375 111 C-63.63819275 102.69010996 -61.96486905 95.71807182 -59 88 C-58.64550781 86.94296875 -58.29101562 85.8859375 -57.92578125 84.796875 C-54.76301308 76.85503443 -50.0584189 73.29366952 -42.53515625 69.87890625 C-29.37988576 64.31672937 -16.14350564 59.31702481 -2 57 C-0.86630601 38.01665595 -0.46873666 19.00870353 0 0 Z M-34.75 79.3125 C-35.69633301 79.55959717 -36.64266602 79.80669434 -37.61767578 80.0612793 C-44.31789878 82.06695021 -47.54166605 84.9490438 -51 91 C-54.97956028 98.50119856 -57.34417612 106.69018771 -54.84375 115.046875 C-52.94847761 119.43407962 -50.22850495 122.7815506 -46.00537109 125.09057617 C-41.78075194 126.70178868 -38.95914303 127.41401063 -34.66796875 125.71875 C-33.16314203 125.00251598 -31.66989502 124.26157707 -30.1875 123.5 C-20.3627582 118.91922268 -10.58911862 116.20067257 0 114 C1.11761719 113.75378906 2.23523438 113.50757813 3.38671875 113.25390625 C22.53253189 109.77066547 43.01653321 111.32578062 62 115 C61.36771484 113.64455078 61.36771484 113.64455078 60.72265625 112.26171875 C60.17480469 111.08222656 59.62695312 109.90273438 59.0625 108.6875 C58.51722656 107.51574219 57.97195313 106.34398437 57.41015625 105.13671875 C53.06272369 95.46639093 53.7453518 82.45028254 57.34375 72.5546875 C57.5603125 72.04164063 57.776875 71.52859375 58 71 C34.7764774 59.3882387 -11.29233351 72.74337488 -34.75 79.3125 Z M-38.80126953 156.25341797 C-42.71475525 156.9552462 -46.63587146 157.60561321 -50.55859375 158.25390625 C-52.78947165 158.64611736 -55.01997126 159.04048922 -57.25 159.4375 C-58.72980347 159.67218994 -58.72980347 159.67218994 -60.23950195 159.91162109 C-69.02384293 161.56327187 -74.59684258 166.3672869 -79.6875 173.625 C-87.1121392 184.73647377 -90.65277477 197.63514124 -88.5390625 210.890625 C-85.28593554 225.51056029 -78.34688867 236.02155371 -66.41015625 244.93359375 C-64.08762333 246.27148335 -64.08762333 246.27148335 -61.8984375 245.3828125 C-59.98384993 243.98823637 -58.32246228 242.52637733 -56.625 240.875 C-31.66161837 218.68020043 5.57241554 215.60496444 37.32421875 217.46484375 C56.33220235 218.84627847 74.7965122 222.54454275 93.22363281 227.28613281 C96.61789545 228.15887498 100.01918013 229.00164083 103.42114258 229.84375 C106.28298074 230.55374428 109.14171659 231.27584474 112 232 C110.7934375 230.6696875 110.7934375 230.6696875 109.5625 229.3125 C97.49804859 215.13248129 89.31471335 199.91851417 89.75 180.8203125 C90.55635024 171.72367381 93.61083029 163.92576689 98 156 C98.33 155.34 98.66 154.68 99 154 C91.13257053 152.23377336 83.26544105 151.25903924 75.25 150.4375 C74.07695313 150.31181641 72.90390625 150.18613281 71.6953125 150.05664062 C34.0805156 146.1091537 -1.76150699 149.59571347 -38.80126953 156.25341797 Z " fill="#000000" transform="translate(696,153)"/>
<path d="M0 0 C3.59967933 0.0186139 7.19910499 0.02050644 10.79882812 0.02026367 C13.10091369 0.0251681 15.40299753 0.03099166 17.70507812 0.0378418 C18.77472809 0.03895462 19.84437805 0.04006744 20.94644165 0.04121399 C21.93623016 0.04759384 22.92601868 0.05397369 23.94580078 0.06054688 C25.24525131 0.06626457 25.24525131 0.06626457 26.57095337 0.07209778 C28.81537007 0.20007185 30.76246607 0.57999855 32.91601562 1.20581055 C32.91601562 1.86581055 32.91601562 2.52581055 32.91601562 3.20581055 C30.55502749 5.0939949 28.17975688 6.87896015 25.72851562 8.64331055 C19.23309112 13.41017796 13.01673932 18.38123338 6.91601562 23.6394043 C4.1881644 25.97299577 1.41161795 28.22019337 -1.39648438 30.45581055 C-14.56412228 41.16780966 -27.15319704 53.16806542 -37.703125 66.4699707 C-38.68382802 67.70278515 -39.6700933 68.93118389 -40.66015625 70.15649414 C-49.68914986 81.33835473 -57.75005014 92.84524724 -65.08398438 105.20581055 C-65.53257812 105.95862305 -65.98117187 106.71143555 -66.44335938 107.48706055 C-73.51740734 119.47133004 -79.67499269 131.9788355 -84.08398438 145.20581055 C-137.58660883 147.11851609 -188.85495816 125.29358947 -235.08398438 100.20581055 C-234.87828955 93.86845088 -231.61307802 90.91973248 -227.39648438 86.64331055 C-226.72093506 85.94367188 -226.04538574 85.2440332 -225.34936523 84.52319336 C-223.27945125 82.3980012 -221.18796022 80.29725078 -219.08398438 78.20581055 C-218.48263672 77.60720215 -217.88128906 77.00859375 -217.26171875 76.3918457 C-174.95471721 34.74364515 -116.57472712 13.05361665 -58.83398438 3.95581055 C-57.87878906 3.80466797 -56.92359375 3.65352539 -55.93945312 3.49780273 C-37.3096604 0.75046646 -18.81545876 -0.10089069 0 0 Z M-52.27148438 23.83081055 C-53.42222946 23.96235535 -53.42222946 23.96235535 -54.59622192 24.09655762 C-88.56904071 28.043301 -121.37514554 36.35670579 -153.08398438 49.20581055 C-153.8791748 49.52485352 -154.67436523 49.84389648 -155.49365234 50.17260742 C-182.57990757 61.17694388 -206.71373864 77.57861774 -229.08398438 96.20581055 C-226.9028179 98.6565357 -225.13339959 99.77152859 -222.02856445 100.79638672 C-221.20993927 101.07091675 -220.39131409 101.34544678 -219.54788208 101.6282959 C-218.65874115 101.91555542 -217.76960022 102.20281494 -216.85351562 102.4987793 C-215.92328583 102.80609985 -214.99305603 103.11342041 -214.03463745 103.43005371 C-210.99228913 104.42959916 -207.94509747 105.41304996 -204.89648438 106.39331055 C-203.85811432 106.72940338 -202.81974426 107.06549622 -201.74990845 107.41177368 C-170.56781051 117.47985581 -137.54275301 127.67636462 -104.45898438 127.26831055 C-103.74097656 127.26379883 -103.02296875 127.25928711 -102.28320312 127.25463867 C-100.5500923 127.2430846 -98.81702568 127.22516212 -97.08398438 127.20581055 C-96.88877197 126.68897705 -96.69355957 126.17214355 -96.49243164 125.63964844 C-86.74521538 100.04366767 -73.43049935 76.47983835 -56.08398438 55.20581055 C-55.38402344 54.31506836 -54.6840625 53.42432617 -53.96289062 52.5065918 C-48.98363061 46.24825582 -43.63124807 40.3941571 -38.13183594 34.5949707 C-34.31648367 30.5678957 -30.66445704 26.44369928 -27.08398438 22.20581055 C-35.55289868 21.95923521 -43.87099221 22.86772993 -52.27148438 23.83081055 Z " fill="#000000" transform="translate(434.083984375,238.794189453125)"/>
<path d="M0 0 C2.40697496 3.07450935 4.15638359 6.56505153 6 10 C6.38671875 10.70640625 6.7734375 11.4128125 7.171875 12.140625 C13.89749015 25.6953263 15.17978138 42.7063218 11.03515625 57.18359375 C6.82137099 68.64826986 -0.22915165 75.49827614 -11.125 80.6875 C-29.942008 89.1765683 -50.60824548 91.1749034 -71 92.6875 C-71.83174744 92.75003967 -72.66349487 92.81257935 -73.52044678 92.87701416 C-90.708515 94.12098485 -107.89749085 94.32669335 -125.125 94.375 C-127.02403076 94.38664688 -127.02403076 94.38664688 -128.96142578 94.39852905 C-184.28237283 94.66649775 -184.28237283 94.66649775 -199.4609375 81.52734375 C-199.96882812 81.02332031 -200.47671875 80.51929688 -201 80 C-201.73089844 79.29037109 -201.73089844 79.29037109 -202.4765625 78.56640625 C-207.82452117 72.79624032 -209.62053171 66.18059309 -209.34765625 58.45703125 C-208.55289309 52.84010962 -206.1502858 49.1502858 -202.1875 45.1875 C-194.55800703 39.95157345 -188.24584903 38.84838179 -179 40 C-171.82328316 42.18506264 -167.7647542 45.59991786 -164 52 C-164.66 53.32 -165.32 54.64 -166 56 C-169.9063291 55.42128458 -171.97929406 53.4312999 -175 51 C-179.06391504 48.86109735 -182.43727493 48.59976096 -187 49 C-191.62708224 50.72381495 -194.43198257 52.75289425 -197 57 C-197.64909256 60.81341878 -197.17630182 62.63270455 -195.5 66.125 C-189.00449834 73.59482691 -178.82494188 75.13499756 -169.3671875 75.83984375 C-129.95048011 77.71465234 -91.23199791 71.57505473 -52.625 64.4375 C-51.59148407 64.24799774 -50.55796814 64.05849548 -49.49313354 63.86325073 C-27.64025911 61.19619581 -27.64025911 61.19619581 -10 50 C-1.67094413 35.23964782 -3.58041211 18.00816631 -6 2 C-3 0 -3 0 0 0 Z " fill="#000000" transform="translate(949,599)"/>
<path d="M0 0 C12.91252501 9.85324985 21.31920591 24.10276375 23.71875 40.23046875 C25.62180471 58.97027138 20.24020641 75.98478087 9 91 C2.53776431 98.44868288 -4.39403719 104.2133258 -13 109 C-13.81082031 109.46019531 -14.62164063 109.92039062 -15.45703125 110.39453125 C-25.00018939 115.49757704 -35.92566641 119.19366667 -46.8125 119.0625 C-48.27623047 119.04896484 -48.27623047 119.04896484 -49.76953125 119.03515625 C-50.50558594 119.02355469 -51.24164062 119.01195312 -52 119 C-52.66 117.35 -53.32 115.7 -54 114 C-52.81857422 113.30777344 -52.81857422 113.30777344 -51.61328125 112.6015625 C-43.26233862 107.60087969 -35.55192133 102.13773989 -28 96 C-26.65228516 94.92105469 -26.65228516 94.92105469 -25.27734375 93.8203125 C-15.47201743 85.54564763 -8.51332356 74.98496003 -4 63 C-3.75507812 62.3503125 -3.51015625 61.700625 -3.2578125 61.03125 C0.38812256 49.24439146 -1.77283996 36.21669866 -7.3203125 25.43359375 C-11.68742263 18.38178477 -17.7183459 11.97065001 -25.80859375 9.4375 C-33.48119909 7.90571426 -39.73526881 8.77617792 -46.80859375 12.02734375 C-48.86819456 12.94149812 -50.80290549 13.52454675 -53 14 C-54.375 12 -54.375 12 -55 9 C-51.60578254 1.71813258 -44.76955773 -2.9548013 -37.5859375 -6.03515625 C-24.38534076 -10.5401218 -11.35451613 -7.75052296 0 0 Z " fill="#000000" transform="translate(1667,477)"/>
<path d="M0 0 C10.52586541 8.45320465 14.95020609 20.44634293 17.5234375 33.3125 C17.6059375 34.385 17.6884375 35.4575 17.7734375 36.5625 C17.825 37.18640625 17.8765625 37.8103125 17.9296875 38.453125 C18.57630852 53.00209799 13.87193807 66.91693913 4.4609375 77.9375 C-5.32462547 88.13147545 -16.25013651 92.66845752 -30.28125 93.58203125 C-33.08138139 93.56346274 -35.51166063 93.21868477 -38.2265625 92.5625 C-38.7215625 90.0875 -38.7215625 90.0875 -39.2265625 87.5625 C-38.24816406 87.0778125 -37.26976562 86.593125 -36.26171875 86.09375 C-22.53375465 79.14126263 -12.05304311 71.37323306 -6.8515625 56.3125 C-3.31339611 43.6782975 -4.49835218 30.27584815 -10.7578125 18.703125 C-13.06558915 15.33966328 -15.29776565 13.65553103 -19.2265625 12.5625 C-28.52670805 10.9498485 -35.28525288 14.91960004 -42.8515625 19.875 C-43.6353125 20.431875 -44.4190625 20.98875 -45.2265625 21.5625 C-46.2165625 20.5725 -47.2065625 19.5825 -48.2265625 18.5625 C-46.50237771 10.96531078 -43.11809555 5.67179589 -37.2265625 0.5625 C-25.18854738 -7.01765945 -12.26866176 -7.92082022 0 0 Z " fill="#000000" transform="translate(715.2265625,498.4375)"/>
</svg>
