<?xml version="1.0" encoding="UTF-8"?>
<svg id="Layer_2" data-name="Layer 2" xmlns="http://www.w3.org/2000/svg" viewBox="0 0 330.67 458.92">
  <defs>
    <style>
      .cls-1 {
        fill: #f3a124;
      }

      .cls-2 {
        fill: #ffba1f;
      }
    </style>
  </defs>
  <g id="Layer_1-2" data-name="Layer 1">
    <g>
      <path class="cls-1" d="M283.89,251.86c-1.21-3.51-1.76-20.89-8.29-14.35-6.85,8.36-13.76,16.88-21.49,24.48-6,6.11-12.46,11.37-19.34,16.51-8.89,4.89-6.24,13.75,2.32,17.23,2.33.81,2.99,2.73.51,4.13-22.4,16.48-50.67,27.4-77.92,28.4-1.29-19.67-.88-40.51-1.23-60.4-2.4-8.98.55-21.25-1.24-30.72,1.31-21.61-.81-43.99-.5-65.46-.06.87-.28,18.29-.41,32.31-.55,12.62-.83-8.89-.65-12.35,2.91-30.08-9.05-33.36,23.24-31.46,24.85-4.12,12.91,7.3,30.47,8.71,24.27-2.17,19.47-40.34-4.93-34.07-5.07,1.49-7.1,7.49-12.51,7.71-11.38-.34-22.99.19-34.39.21-4.51.52-.85-34.58-1.95-42.26.02-1.75-.29-3.27,1.16-4.15,28.3-14.38,29.81-58.07,1.41-73.23-32.63-14.73-62.84,18.32-50.62,50.66,7.99,23.2,21.65,16.15,21.16,29.75-.93,10.3.39,19.75.98,29.96-.04,9.15-3.3,8.91-10.92,8.58-43.05,5.9-24.6-8.57-45.91-7.81-16.63,2.23-18.99,28.27-3,33.77,12.3,4.1,14.49-6.45,23.31-7.74,40.7,1.47,32.32-8.24,34,23.37.5-5.53-.46-17.88.4-23.01,1.86,8.11-.32,17.27-.24,25.72,1.65,11.84-.59,26.06-.06,37.16-.24-2.02.57-40.8-.51-31.9-.99,38.4-.96,77.26-1.81,115.73-.78,5.53,3.21,20.79-4.48,21.11-21.83-3.09-42.87-10.49-62.35-20.66-2.11-1.74-16.83-8.94-12.13-11.29,16.72-8.05,7.83-15.55-2.87-23.14-13.76-10.01-24.15-24.07-35.2-36.75-11.1-3.05-7.01,37.36-7.75,45.57,2.67,8.24,4.59,45.97,18.54,32.73,6.37-7.46,6.52-7.86,12.26.24,4.59,6.23,10.16,11.8,15.26,17.68,26.68,30.74,61.8,55.31,81.34,91.43,3.77,7.7,7.67,14.99,9.97,23.38.66,4.36,3.76,16.31,6.4,8.92,10.54-53.31,60.04-83.51,93.21-122.55,5.44-3.97,18.67-26.2,22.64-24.61,8.29,8.95,14.48,12.62,18.33-2.43,5.35-17.15,8.23-37.24,5.82-54.97l-.03-.14ZM154.21,76.29c-2.28,3.25-3.67-.08-6.12-2.06-4.12-3.29-9.87-1.93-13.66,1.4-1.2,1.13-2.78,2.17-4.27.89-9.06-8.02-10.15-24.07-1.14-32.45,3.12-2.45,6.1-4.71,10.23-5.33,3.02-.83,5.93.5,8.86,1.08,3.26.62,6.94,3.59,9.09,6.71,1.37,1.67,2.33,3.5,2.61,5.62,2.31,10.19,1.28,15.85-5.49,23.99l-.11.14Z"/>
      <path class="cls-2" d="M284.26,253.33c.6,8.59.91,19.39-.69,28.13-1.99,11.72-3.08,25.58-10.4,35.06-4.33,2.69-8.61-2.45-11.36-5.46-2.67-3.82-5.23-1.18-7.37,1.87-3.13,4.18-6.24,8.4-9.68,12.3-34.3,43.18-89.44,74.33-101,131.61-5.76-59.3.16-387.65-1.9-384.93,6.3-1.77,9.11,8.78,13.25,2.42,10.84-11.24,5.7-32.78-10.74-34.62-1.87-.53-2.53-1.79-2.49-3.54.09-3.75-.25-10.74.13-14.58,17.63-7.03,36.64,18.32,37.09,34.63.66,15.05-6.35,30.42-19.42,38.36-2.27,1.63-4.62,2.12-4.08,5.63-.01,9.46-.03,35.03-.03,41.15-.1,2.21,3.21,1.39,4.79,1.53,8.9-.14,17.88-.39,26.72-.33,3.49.1,7.41.74,10-2.18,18.58-20.24,41.98,13.67,19.13,26.57-7.05,4.5-16.1,1.08-20.38-5.51-.63-.85-1.63-1.43-2.68-1.65-9.61-.42-19.85.91-29.55.27-6.01-.35-8.04,2.09-7.42,8.41.18,7.87-.61,15.27-.52,23.25-.18,3.19.1,25.52.65,12.33.12-12.94.4-36.07.42-30.92,0,15.27.43,31.17,1.13,46.33.12,6.8-1.38,15.59-.05,22.28.3,8.8-1.2,19.81.84,28.01-.47,8.88-.4,17.81.38,26.7-.1,8.57.24,17.72.11,26.31.07,1.77-.63,4.21.64,5.48,25.02-1.27,51.17-10.16,72.32-24.68,13.5-8.37,4.65-5.32-1.5-12.9-3.83-4.81.05-9.46,4.19-12.19,6.88-5.14,13.33-10.39,19.34-16.49,21.3-18.98,24.79-42.64,30.12-8.74l.03.11Z"/>
    </g>
  </g>
</svg>